<!-- BrandPair: Bee + Blueberry tight overlap on transparent background.
     viewBox is 58×32 (pair natural width with tight gap = 32 + 32 - 32*0.18 = 58.24).
     Used as an association mark; favicons use the Bee-only mark. -->
<svg viewBox="0 0 58 32" xmlns="http://www.w3.org/2000/svg">
  <!-- Bee -->
  <ellipse cx="9" cy="11" rx="5" ry="3.5" fill="#bedafe" opacity="0.9"/>
  <ellipse cx="23" cy="11" rx="5" ry="3.5" fill="#bedafe" opacity="0.9"/>
  <ellipse cx="16" cy="18" rx="9" ry="8" fill="#f5cc47"/>
  <path d="M16 26c4.5 0 8.5-3 9-7-1 4-5 6-9 6-2 0-4-.6-5.5-1.7C12 25 14 26 16 26z" fill="#e1a52d"/>
  <rect x="9" y="14.5" width="14" height="2.2" rx="1" fill="#212936"/>
  <rect x="9" y="19.5" width="14" height="2.2" rx="1" fill="#212936"/>
  <circle cx="20" cy="16.5" r="1.1" fill="#212936"/>
  <path d="M13 11.5l-1.5-3M19 11.5l1.5-3" stroke="#212936" stroke-width="1.2" stroke-linecap="round"/>

  <!-- Blueberry — translated 26.24px right (32 - 5.76 overlap) -->
  <g transform="translate(26.24, 0)">
    <circle cx="16" cy="17" r="10" fill="#3c83f6"/>
    <ellipse cx="12.5" cy="13" rx="2.6" ry="1.7" fill="white" opacity="0.5"/>
    <path d="M22 22c0 3-3 5-6 5s-6-2-6-5c1.5 2 3.5 3 6 3s4.5-1 6-3z" fill="#1e3a6e" opacity="0.5"/>
    <path d="M13 7.5l1.6 1.6L16 7.5l1.4 1.6L19 7.5v2.2c0 .9-1.3 1.7-3 1.7s-3-.8-3-1.7V7.5z" fill="#212936"/>
  </g>
</svg>
